# xmcd
#
# Track frame offsets: 
#        150
#        9169
#        21632
#        34099
#        51517
#        63079
#        73731
#        87998
#        102022
#        121792
#        163072
#        175126
#        188210
#        200758
#        222228
#        232363
#        245714
#        282505
#        301217
#
# Disc length: 4139 seconds
#
# Revision: 0
# Processed by: cddbd v1.5.2PL0 Copyright (c) Steve Scherf et al.
# Submitted via: ExactAudioCopy v1.0b1
#
DISCID=19102913
DTITLE=Elvis Presley  - Viva Las Vegas - 30th Anniversary -  (Disk 2) 
DTITLE=
DYEAR=1900
DGENRE=
TTITLE0=Blue Suede Shoes (Live In Las Vegas 21-08-1969 - 30th Annivers
TTITLE0=ary)
TTITLE1=I Got A Woman (Live In Las Vegas 21-08-1969 - 30th Anniversary
TTITLE1=)
TTITLE2=All Shook Up (Live In Las Vegas 21-08-1969 - 30th Anniversary)
TTITLE3=Love Me Tender (Live In Las Vegas 21-08-1969 - 30th Anniversar
TTITLE3=y)
TTITLE4=Jailhouse Rock\\Don't Be Cruel (Live In Las Vegas 21-08-1969 -
TTITLE4=30th Anniversary)
TTITLE5=Heartbreak Hotel (Live In Las Vegas 21-08-1969 - 30th Annivers
TTITLE5=ary)
TTITLE6=Hound Dog (Live In Las Vegas 21-08-1969 - 30th Anniversary)
TTITLE7=Memories (Live In Las Vegas 21-08-1969 - 30th Anniversary)
TTITLE8=Mystery Train\\Tiger Man (Live In Las Vegas 21-08-1969 - 30th 
TTITLE8=Anniversary)
TTITLE9=Monologue\\Life Story (Live In Las Vegas 21-08-1969 - 30th Ann
TTITLE9=iversary)
TTITLE10=Baby What You Want Me To Do (Live In Las Vegas 21-08-1969 - 3
TTITLE10=0th Anniversary)
TTITLE11=Runaway (Live In Las Vegas 21-08-1969 - 30th Anniversary)
TTITLE12=Are You Lonesome Tonight? (Live In Las Vegas 21-08-1969 - 30t
TTITLE12=h Anniversary)
TTITLE13=Yesterday\\Hey Jude (Live In Las Vegas 21-08-1969 - 30th Anni
TTITLE13=versary)
TTITLE14=Introductions (Live In Las Vegas 21-08-1969 - 30th Anniversar
TTITLE14=y)
TTITLE15=In The Ghetto (Live In Las Vegas 21-08-1969 - 30th Anniversar
TTITLE15=y)
TTITLE16=Suspicious Minds (Live In Las Vegas 21-08-1969 - 30th Anniver
TTITLE16=sary)
TTITLE17=What'd I Say (Live In Las Vegas 21-08-1969 - 30th Anniversary
TTITLE17=)
TTITLE18=Can't Help Falling In Love (Live In Las Vegas 21-08-1969 - 30
TTITLE18=th Anniversary)
EXTD=
EXTT0=
EXTT1=
EXTT2=
EXTT3=
EXTT4=
EXTT5=
EXTT6=
EXTT7=
EXTT8=
EXTT9=
EXTT10=
EXTT11=
EXTT12=
EXTT13=
EXTT14=
EXTT15=
EXTT16=
EXTT17=
EXTT18=
PLAYORDER=
